HIERARCHY
ROOT HipCenter
{
    OFFSET 0.0 0.0 -0.0
    CHANNELS 6 Xposition Yposition Zposition Zrotation Xrotation Yrotation
    JOINT Spine
    {
        OFFSET 0.0 0.11784408241510391 0.0
        CHANNELS 3 Zrotation Xrotation Yrotation
        JOINT ShoulderCenter
        {
            OFFSET 0.0 0.3131304681301117 0.0
            CHANNELS 3 Zrotation Xrotation Yrotation
            JOINT LeftShoulder
            {
                OFFSET 0.16964055597782135 0.0 0.0
                CHANNELS 3 Zrotation Xrotation Yrotation
                JOINT LeftElbow
                {
                    OFFSET 0.24579742550849915 0.0 0.0
                    CHANNELS 3 Zrotation Xrotation Yrotation
                    JOINT LeftWrist
                    {
                        OFFSET 0.2672228217124939 0.0 0.0
                        CHANNELS 3 Zrotation Xrotation Yrotation
                        JOINT LeftHand
                        {
                            OFFSET 0.03275162726640701 0.0 0.0
                            CHANNELS 3 Zrotation Xrotation Yrotation
                            End Site
                            {
                                OFFSET 0.013100650161504745 0.0 0.0
                            }
                        }
                    }
                }
            }
            JOINT RightShoulder
            {
                OFFSET -0.16964055597782135 0.0 0.0
                CHANNELS 3 Zrotation Xrotation Yrotation
                JOINT RightElbow
                {
                    OFFSET -0.24579742550849915 0.0 0.0
                    CHANNELS 3 Zrotation Xrotation Yrotation
                    JOINT RightWrist
                    {
                        OFFSET -0.2672228217124939 0.0 0.0
                        CHANNELS 3 Zrotation Xrotation Yrotation
                        JOINT RightHand
                        {
                            OFFSET -0.03275162726640701 0.0 0.0
                            CHANNELS 3 Zrotation Xrotation Yrotation
                            End Site
                            {
                                OFFSET -0.013100650161504745 0.0 0.0
                            }
                        }
                    }
                }
            }
            End Site
            {
                OFFSET 0.0 0.12525220215320587 0.0
            }
        }
    }
    JOINT LeftHip
    {
        OFFSET 0.12335805594921112 0.0 0.0
        CHANNELS 3 Zrotation Xrotation Yrotation
        JOINT LeftKnee
        {
            OFFSET 0.0 -0.36662057042121887 0.0
            CHANNELS 3 Zrotation Xrotation Yrotation
            JOINT LeftAnkle
            {
                OFFSET 0.0 -0.3812560439109802 0.0
                CHANNELS 3 Zrotation Xrotation Yrotation
                JOINT LeftFoot
                {
                    OFFSET 0.0 -0.11604933440685272 0.0
                    CHANNELS 3 Zrotation Xrotation Yrotation
                    End Site
                    {
                        OFFSET 0.0 0.0 0.04641973227262497
                    }
                }
            }
        }
    }
    JOINT RightHip
    {
        OFFSET -0.12335805594921112 0.0 0.0
        CHANNELS 3 Zrotation Xrotation Yrotation
        JOINT RightKnee
        {
            OFFSET 0.0 -0.36662057042121887 0.0
            CHANNELS 3 Zrotation Xrotation Yrotation
            JOINT RightAnkle
            {
                OFFSET 0.0 -0.3812560439109802 0.0
                CHANNELS 3 Zrotation Xrotation Yrotation
                JOINT RightFoot
                {
                    OFFSET 0.0 -0.11604933440685272 0.0
                    CHANNELS 3 Zrotation Xrotation Yrotation
                    End Site
                    {
                        OFFSET 0.0 0.0 0.04641973227262497
                    }
                }
            }
        }
    }
}
MOTION
Frames: 4
Frame Time: 0.03333333333333333
0.38600000739097595 -0.2590000033378601 0.6700000166893005 2.7263084123560715 26.756798911154604 -6.788432592545115 2.9983413522256104 2.1917565653745994 -4.710439369943608e-05 -6.706712633320727e-07 1.1626609555511233e-06 -11.342780435307889 110.37583519839521 -22.139175109463316 -158.20336376522332 -1.2311325499689055e-06 8.748930540658613e-07 44.55314783355496 179.99999890201343 -39.47342563775561 -123.30926871082926 3.1805546814635168e-15 0.0 0.0 -141.25990411465796 33.73184124684102 -136.7318032208442 1.8893156120926186e-06 1.3974776499405757e-07 -24.72553787904336 3.4725392112534444e-06 -16.06763555988544 -21.222560436796414 -3.975693351829396e-15 7.951386703658792e-16 2.758691436281349e-32 78.17613436041736 -53.87456978081878 145.39805367414777 73.56131841828649 21.800756374039292 -156.58490183425428 77.88804061840204 -33.04115415999767 139.66027817501478 2.2069531490250793e-32 7.951386703658792e-16 -3.1805546814635168e-15 -63.97329771894244 -80.51587264387383 -116.93140002923413 -76.02409834002195 44.20912335559037 123.58060462332469 -81.07488393737292 -49.6756227509126 -128.95905355575687 1.5902773407317584e-15 6.620859447075238e-32 4.770832022195275e-15
0.39800000190734863 -0.3149999976158142 0.6710000038146973 3.8506384265547298 27.8184743805953 -8.33562645917714 2.7934456952984124 1.6271532145206262 0.023684515341518754 -8.272278743982793e-08 1.66207969601889e-06 -12.434686461117167 105.24011285024085 -19.20900679893382 -160.95939739690468 4.5965336331826596e-06 3.572544625872799e-06 38.48860110406749 179.99999744167687 -39.612601469563174 -124.26708576574092 0.0 0.0 3.1805546814635164e-15 -142.50314827265376 37.193920290504835 -135.9302933959883 1.4832549141794192e-07 2.374506346046851e-06 -24.97345496794388 3.033371907489991e-07 -17.415926185068102 -19.93253402549443 0.0 0.0 0.0 88.4781692813853 -52.05241765362909 160.11718525242588 84.92949875627295 19.691711075509513 -163.57240633376088 89.13497470198891 -30.196857978389826 146.70890869466717 -1.5902773407317578e-15 7.156248033292914e-15 -7.951386703658792e-15 -111.74796114105496 -78.26889558260889 -169.7788311203962 -90.20954491604238 40.165442440376836 136.96485849845777 -89.0334346567097 -47.90431117438676 -136.46695077918648 0.0 0.0 0.0
0.4099999964237213 -0.3709999918937683 0.671999990940094 4.945968310074687 27.783714397433897 -10.33869683029632 3.021893061224787 2.0730415791106167 -0.0012471939815698713 -1.1572790774868027e-07 1.6455232485387375e-06 -13.223033225973406 100.06620047157607 -13.944170110524711 -163.07299398369432 3.4991213810722613e-07 2.760025398599395e-06 33.31168544676504 -179.9999996745637 -40.7070645918669 -122.07025243207423 3.1805546814635168e-15 8.827812596100317e-32 3.1805546814635168e-15 -142.88084511715536 40.458039961952814 -136.14428922023828 -1.965719594037668e-06 4.666667416934602e-06 -24.37426730333176 2.955458537982162e-06 -22.68957455579276 -22.796749306176938 1.5902773407317584e-15 0.0 0.0 97.2486615980285 -47.98567908652916 173.33117990424248 96.08160891266208 17.505602718761704 -168.05262514849315 97.48267764411614 -24.72557617048161 154.11552388702012 0.0 0.0 -1.5902773407317588e-15 -137.23445966261121 -73.33963467509045 164.06976280025665 -102.51010489613523 37.79725545942108 144.1185063086748 -93.65902838539755 -49.066345487732995 -138.74361919238805 1.590277340731758e-15 4.4139062980501586e-32 3.180554681463516e-15
0.4230000078678131 -0.4320000112056732 0.671999990940094 6.095864873513237 28.39631902975321 -13.065695200765918 3.29130250305771 1.8290067272550927 -0.054972545635048414 4.9460501546323835e-08 -5.5512081199211386e-08 -13.519846756914388 97.40350866381242 -8.409687145724554 -164.0717373763717 -3.2718416444620235e-06 -3.1176466606543663e-06 30.645673216397103 -179.9999969629082 -39.16367156225278 -122.75475242882086 3.1805546814635168e-15 -8.827812596100317e-32 -3.1805546814635168e-15 -142.16176453323465 44.26729324354224 -136.7958676110932 2.7520789845656116e-06 1.9444045079797396e-06 -24.342516082266176 -7.718297839656332e-07 -27.408103135898457 -23.41476074780568 0.0 -9.939233379573487e-17 0.0 106.95287738993777 -40.030578951298374 -168.9885625035534 107.28108357806501 9.001633674788042 -174.73229624154672 100.76282328410379 -20.028880175832235 158.39744474681217 -6.3611093629270335e-15 3.531125038440127e-31 -6.3611093629270335e-15 -153.20296563762335 -65.6064658131498 147.9033840504192 -114.27692284802878 34.91544612135472 151.54735660140693 -95.94757763442357 -47.80229403605226 -138.8240693729938 2.2069531490250793e-32 1.5902773407317584e-15 -1.5902773407317584e-15
